# xmcd
#
# Track frame offsets: 
#        150
#        16210
#        46067
#        76165
#
# Disc length: 1359 seconds
#
# Revision: 2
# Processed by: cddbd v1.5.2PL0 Copyright (c) Steve Scherf et al.
# Submitted via: ExactAudioCopyFreeDBPlugin 1.0
#
DISCID=1d054d04
DTITLE=Zhané - Vibe (MCD)
DYEAR=1994
DGENRE=Soul
TTITLE0=Vibe (Original Album Version)
TTITLE1=Vibe (Maurice's Clubvibe Mix)
TTITLE2=Vibe (UBQ's Vibeunder Mix)
TTITLE3=Vibe (Georgie's Feelthevibe Mix)
EXTD=
EXTT0=
EXTT1=
EXTT2=
EXTT3=
PLAYORDER=
